<?xml version="1.0" encoding="utf-8"?>
<!-- Generator: Adobe Illustrator 21.1.0, SVG Export Plug-In . SVG Version: 6.00 Build 0)  -->
<svg version="1.1" id="Layer_1" xmlns="http://www.w3.org/2000/svg" xmlns:xlink="http://www.w3.org/1999/xlink" x="0px" y="0px"
	 viewBox="0 0 361 378" style="enable-background:new 0 0 361 378;" xml:space="preserve">
<style type="text/css">
	.st0{fill:#64011E;}
	.st1{fill:url(#SVGID_1_);}
	.st2{fill:url(#SVGID_2_);}
	.st3{fill:url(#SVGID_3_);}
	.st4{fill:url(#SVGID_4_);}
	.st5{fill:#F04E01;}
	.st6{fill:#FD1404;}
	.st7{fill:url(#SVGID_5_);}
	.st8{fill:url(#SVGID_6_);}
</style>
<g>
	<g>
		<path class="st0" d="M349.9,149.6c0.1-1.2,0.1-2.3,0-3.3c-0.1-1.6-0.4-3-0.8-4.4c-9.5-71.9-71-127.4-145.5-127.4
			C141,14.5,87.5,53.8,66.4,109c-5.3,2.5-10.6,5.5-15.8,9.1c-6,4.1-11.7,8.7-16.9,13.9c-5.4,5.2-10,10.8-13.7,16.6
			c-3.9,6-6.6,12.2-8.2,18.5c-1.7,6.8-1.5,13.6,0.6,20.1c1.7,5.4,5,9.8,9.6,13.3c4,3,8.6,5.4,13.7,7c4.8,1.6,10,2.6,15.3,3.1
			c5,0.5,9.8,0.5,14.3,0.1c3.5,9.9,8.1,19.2,13.5,28l-0.3,0l1.4,1.8c4.7,7.4,10.1,14.3,16.1,20.7l0.9,1c26.8,28.3,64.6,46,106.7,46
			c81.1,0,146.8-65.7,146.8-146.8C350.3,157.4,350.2,153.5,349.9,149.6z"/>
		<g>
			<g>
				<g>
					<linearGradient id="SVGID_1_" gradientUnits="userSpaceOnUse" x1="91.8746" y1="214.9279" x2="218.4042" y2="11.1828">
						<stop  offset="0.2186" style="stop-color:#FFFFFF"/>
						<stop  offset="0.3179" style="stop-color:#FFF7F6"/>
						<stop  offset="0.4789" style="stop-color:#FEE3DE"/>
						<stop  offset="0.6816" style="stop-color:#FDC2B7"/>
						<stop  offset="0.9158" style="stop-color:#FC9481"/>
						<stop  offset="1" style="stop-color:#FB826C"/>
					</linearGradient>
					<path class="st1" d="M189.5,122.1c-0.3,1-1,3.1-1.9,6.3c-0.9,3.2-2,7-3.2,11.6c-1.2,4.6-2.4,9.8-3.7,15.5
						c-1.3,5.7-2.4,11.6-3.4,17.8c-1,6.2-1.8,12.4-2.5,18.7c-0.6,6.3-0.9,12.3-0.7,18c0.2,5.7,0.8,11,1.9,15.8
						c1.1,4.8,2.9,8.9,5.2,12.1c-4.5-1-8.7-3.3-12.4-6.9c-3.7-3.6-6.4-8.3-7.9-14.1c-1.1-4.2-1.6-8.8-1.7-13.9
						c-0.1-5.1,0.2-10.3,0.7-15.7c0.6-5.4,1.4-10.7,2.4-16.1c1-5.4,2.1-10.5,3.3-15.2c1.1-4.8,2.3-9.1,3.3-12.9
						c1.1-3.8,2-6.9,2.6-9.2c-1.4,1.5-3.1,3.9-4.9,7.2c-1.8,3.3-3.7,7-5.7,11.3c-2,4.3-4,8.9-6,13.8c-2,5-3.9,9.9-5.7,14.9
						c-1.8,5-3.4,9.8-4.8,14.5c-1.4,4.7-2.5,8.9-3.3,12.5c-0.1,0.4-0.3,1-0.4,1.7c-0.2,0.7-0.3,1.6-0.3,2.5c-0.1,1,0,2,0,3.1
						c0.1,1.1,0.4,2.3,0.8,3.5c-1-0.1-2.3-0.4-4.1-1.1c-1.7-0.7-3.5-1.7-5.4-3c-1.9-1.3-3.6-3-5.1-5c-1.5-2-2.6-4.4-3.2-7.2
						c-0.4-2.4-0.5-5.4-0.3-8.8c0.2-3.4,0.5-7,1-10.9c0.5-3.9,1.2-7.9,2-12c0.8-4.1,1.7-8.1,2.6-12c0.9-3.9,1.9-7.5,2.8-11
						c1-3.5,1.9-6.5,2.7-9l-2.5,2c-1.7,2.1-3.5,5.4-5.5,9.9c-2,4.5-4,9.6-6,15.4c-2,5.8-4,11.9-5.9,18.3c-1.9,6.5-3.7,12.7-5.4,18.8
						c-0.5,2-1.1,3.9-1.8,5.7c-0.7,1.8-1.3,3.6-1.9,5.4c-0.6,1.8-1.1,3.6-1.5,5.4c-0.4,1.8-0.7,3.7-0.7,5.6c0,0.9,0,1.9,0,2.9
						c0,1,0,2.1,0.2,3.1c0.2,1.1,0.5,2.1,1,3.2c0.5,1.1,1.3,2.1,2.3,3c-2.4,0.2-4.5-0.2-6.4-1c-1.8-0.8-3.4-1.9-4.8-3.2
						c-1.4-1.3-2.6-2.8-3.6-4.5c-1-1.6-1.9-3.2-2.7-4.6c-2.4-4.3-3.7-9.4-4-15.4c-0.3-6-0.1-12.4,0.8-19.2
						c0.9-6.8,2.1-13.6,3.7-20.6c1.6-7,3.2-13.5,4.8-19.6c1.5-6.1,2.8-11.5,3.8-16.2c1-4.7,1.4-8.2,1-10.4c-0.3-1.1-0.6-2-1.1-2.7
						c-0.5-0.6-1.1-1.1-2-1.3c-0.9-0.2-1.9-0.3-3.2-0.2c-1.3,0.1-2.9,0.3-4.8,0.7c-5.3,1-10.7,2.9-16.1,5.6
						c-5.4,2.7-10.5,5.9-15.3,9.6c-4.8,3.7-9.3,7.7-13.3,12.1c-4.1,4.4-7.5,8.8-10.2,13.2c-2.8,4.4-4.7,8.7-5.9,12.9
						c-1.2,4.2-1.3,7.9-0.4,11.2c0.8,3.2,2.4,5.7,4.8,7.6c2.4,1.9,5.3,3.3,8.6,4.3c3.3,0.9,6.8,1.5,10.6,1.6c3.7,0.1,7.4,0,10.9-0.4
						c3.5-0.4,6.7-0.9,9.6-1.7c2.9-0.7,5-1.5,6.5-2.3c-0.3,2.1-0.9,3.7-2,5c-1.1,1.3-2.2,2.2-3.5,2.9c-1.3,0.7-2.7,1.2-4,1.4
						c-1.4,0.3-2.5,0.4-3.3,0.5c-4.1,0.4-8.6,0.4-13.3-0.1c-4.7-0.4-9.2-1.4-13.5-2.8c-4.3-1.4-8.1-3.4-11.5-5.9
						c-3.3-2.5-5.6-5.7-6.9-9.5c-1.6-5.1-1.8-10.3-0.4-15.8c1.3-5.4,3.7-10.8,7.1-16.1c3.4-5.3,7.6-10.4,12.6-15.2
						c5-4.9,10.3-9.2,15.9-13c5.6-3.8,11.3-7,17-9.5c5.7-2.5,11.1-4.2,16.1-4.9c2.5-0.4,4.9-0.2,7.2,0.6c2.3,0.7,4.5,1.8,6.5,3.2
						c2,1.4,3.7,3,5.1,4.8c1.4,1.8,2.4,3.7,3.1,5.6c0.5,3.7,0.6,8,0.1,12.9c-0.5,4.9-1.1,10-2.1,15.5c-0.9,5.5-2,11.1-3.2,16.9
						c-1.2,5.8-2.2,11.6-3.2,17.3c-1,5.7-1.7,11.3-2.2,16.6c-0.5,5.4-0.5,10.3,0,14.8c0.1-0.5,0.3-1.5,0.4-2.8
						c0.3-3.4,1.1-7.8,2.3-13.1c1.2-5.4,2.7-11.2,4.7-17.4c1.9-6.3,4.2-12.7,6.7-19.4c2.5-6.7,5.3-13,8.2-19.1
						c2.9-6.1,6-11.6,9.3-16.5c3.2-5,6.5-8.9,9.9-11.7c0.8-0.7,1.8-0.8,3-0.3c1.2,0.5,2.3,1.3,3.2,2.4c1,1.1,1.8,2.4,2.4,3.8
						c0.6,1.5,0.7,2.8,0.4,4c-0.7,2.4-1.5,5.3-2.4,8.9c-1,3.5-1.9,7.4-3,11.6c-1,4.2-2,8.6-3.1,13.3c-1,4.7-1.9,9.4-2.6,14.2
						c-0.7,4.8-1.3,9.5-1.6,14.1c-0.4,4.6-0.4,9-0.1,13.1c0.9-3.6,2-8,3.4-13.1c1.4-5.1,3.1-10.5,5-16.2c1.9-5.7,4-11.6,6.4-17.6
						c2.3-6,4.8-11.8,7.5-17.3c2.7-5.5,5.5-10.6,8.4-15.1c3-4.6,6-8.4,9.1-11.3c0.8-0.7,1.9-0.8,3.4-0.1c1.5,0.6,2.9,1.5,4.3,2.7
						c1.4,1.2,2.6,2.5,3.6,3.9C189.4,120.2,189.8,121.3,189.5,122.1z"/>
					<linearGradient id="SVGID_2_" gradientUnits="userSpaceOnUse" x1="155.8544" y1="254.6606" x2="282.384" y2="50.9155">
						<stop  offset="0.2186" style="stop-color:#FFFFFF"/>
						<stop  offset="0.3179" style="stop-color:#FFF7F6"/>
						<stop  offset="0.4789" style="stop-color:#FEE3DE"/>
						<stop  offset="0.6816" style="stop-color:#FDC2B7"/>
						<stop  offset="0.9158" style="stop-color:#FC9481"/>
						<stop  offset="1" style="stop-color:#FB826C"/>
					</linearGradient>
					<path class="st2" d="M202.2,182.8c-0.1,0.7-0.3,1.7-0.7,3.2c-0.4,1.4-1,3-1.7,4.7c-0.7,1.7-1.5,3.4-2.4,5.2
						c-0.9,1.8-1.8,3.3-2.7,4.7c-0.9,1.4-1.8,2.5-2.8,3.3c-0.9,0.8-1.7,1.1-2.5,0.9c-2-0.6-3.8-1.3-5.4-2.2
						c-1.6-0.9-2.7-2.2-3.1-3.9c-0.7-2.9-0.8-6.4-0.4-10.8c0.4-4.3,1.2-8.9,2.5-13.9c0.5-1.6,1.1-3.5,1.8-5.7
						c0.8-2.1,1.7-4.2,2.9-6.2c1.2-2,2.6-3.8,4.3-5.3c1.7-1.5,3.7-2.4,6.1-2.8c1.4-0.2,2.9-0.2,4.2,0.1c1.4,0.3,2.6,0.7,3.7,1.3
						c1.1,0.6,2,1.3,2.8,2.2c0.8,0.8,1.3,1.7,1.7,2.6c0.3,0.8,0.5,1.6,0.4,2.3c-0.1,0.7-0.5,1.2-1.2,1.3c-0.9,0.1-1.5-0.1-1.8-0.5
						c-0.4-0.5-0.7-1-1.1-1.6c-0.4-0.6-0.8-1.1-1.3-1.6c-0.5-0.5-1.4-0.6-2.6-0.5s-2.2,0.9-3.2,2.2c-1,1.3-1.8,2.9-2.6,4.7
						c-0.8,1.8-1.5,3.6-2,5.5c-0.6,1.9-1,3.4-1.3,4.5c0,0.1-0.2,0.7-0.5,2c-0.3,1.3-0.7,2.8-1.1,4.6c-0.4,1.8-0.8,3.5-1.2,5.3
						c-0.4,1.8-0.7,3.2-0.8,4.3c-0.1,0.8,0,1.3,0.4,1.5c0.4,0.2,1-0.1,1.6-0.7c0.5-0.5,1.1-1.4,1.8-2.5c0.7-1.1,1.4-2.5,2.1-4
						c0.7-1.5,1.5-3.1,2.2-4.8c0.8-1.7,1.4-3.3,2.1-4.9c0.6-1.6,1.2-3,1.6-4.4c0.5-1.4,0.8-2.5,1-3.3l0.8-6.3c0-0.1,0.5,0.1,1.4,0.5
						c0.9,0.4,2,1,3.2,1.8c1.2,0.8,2.4,1.6,3.5,2.6c1.1,1,2,1.9,2.4,2.8c0.4,0.9,0.4,1.8,0.1,2.9c-0.3,1.1-0.6,2.6-1,4.6
						c-0.3,2-0.6,3.6-0.8,5c-0.2,1.4-0.4,2.8-0.5,4.3c-0.2,1.5-0.2,2.7-0.2,3.7c0.1,1.2,0.3,1.8,0.6,2c0.3,0.1,0.7,0.1,1-0.3
						c0.4-0.3,0.7-0.8,1-1.4c0.3-0.6,0.6-1,0.7-1.3c1-1.8,2-4.1,3-6.8c1-2.7,2.1-5.4,3.2-8l4.6-12.3c0,0.4,0.1,1,0.2,1.7
						c0.1,0.7,0.2,1.7,0.2,2.8s-0.1,2.4-0.3,3.9c-0.2,1.5-0.6,3.3-1.3,5.3l-0.4,0.7l-1.2,3.7c-0.7,2-1.4,4.1-2.1,6.2
						c-0.7,2.1-1.5,4.1-2.4,5.9c-0.9,2-1.9,3.6-3,5c-1.1,1.4-2.2,2.2-3.5,2.4c-0.9,0.1-1.9,0-2.8-0.3c-1-0.4-1.9-0.9-2.7-1.7
						c-0.9-0.8-1.6-1.8-2.3-2.9c-0.7-1.2-1.1-2.4-1.3-3.9c-0.2-0.8-0.4-1.6-0.5-2.6c-0.1-1-0.2-1.9-0.3-2.8
						c-0.1-0.9-0.2-1.7-0.2-2.4C202.4,183.6,202.3,183.1,202.2,182.8z"/>
					<linearGradient id="SVGID_3_" gradientUnits="userSpaceOnUse" x1="180.5693" y1="270.009" x2="307.0989" y2="66.264">
						<stop  offset="0.2186" style="stop-color:#FFFFFF"/>
						<stop  offset="0.3179" style="stop-color:#FFF7F6"/>
						<stop  offset="0.4789" style="stop-color:#FEE3DE"/>
						<stop  offset="0.6816" style="stop-color:#FDC2B7"/>
						<stop  offset="0.9158" style="stop-color:#FC9481"/>
						<stop  offset="1" style="stop-color:#FB826C"/>
					</linearGradient>
					<path class="st3" d="M245.8,186.7c-0.1-1.3-0.2-2.9-0.1-4.9c0-1.9,0.1-4,0.2-6.1c0.1-2.1,0.2-4.2,0.3-6.4
						c0.1-2.1,0.3-4,0.4-5.7c0.1-1.3,0.2-2.4,0.3-3.4c0.1-1,0.2-2,0.3-3c0.1-1.3,0.1-2.2-0.1-2.6c-0.2-0.4-0.5-0.5-0.8-0.3
						c-0.3,0.2-0.7,0.5-1.1,1.1c-0.4,0.5-0.8,1.1-1.1,1.7c-0.6,0.9-1.5,2.6-2.8,5.1c-1.3,2.5-2.5,5.4-3.7,8.8c-1.2,3.4-2.2,7.1-3,11
						c-0.8,3.9-1,7.8-0.6,11.5c0.5,1.7,1.2,3,2.2,4c-1.1,0.2-2.3,0.2-3.7,0.1c-1.3-0.1-2.6-0.4-3.8-1c-1.2-0.6-2.2-1.4-3.1-2.5
						c-0.9-1.1-1.4-2.5-1.6-4.4c-0.2-1.3-0.3-2.9-0.3-4.8c0-1.9,0-4,0.1-6.1c0.1-2.1,0.2-4.3,0.4-6.4c0.2-2.1,0.3-4,0.4-5.6
						l1.2-11.8c0-1.3-0.1-2.3-0.4-3c-0.3-0.7-0.6-1.4-0.9-2.2c0-0.1,0.5,0.2,1.5,0.8c1,0.6,2.2,1.3,3.5,2.2c1.3,0.9,2.7,1.9,3.9,2.9
						c1.3,1.1,2.1,2.1,2.5,3c0.3,0.7,0.6,1.4,0.9,2.3c0.3,0.8,0.4,1.8,0.3,3c0.7-2.1,1.3-3.9,1.8-5.4c0.5-1.5,1-2.9,1.6-4.2
						c0.9-2,1.9-3.7,3-5.1c1-1.3,2.2-2.2,3.4-2.6c0.8-0.2,1.8-0.1,3.2,0.3c1.3,0.4,2.6,1.1,3.9,2c1.3,0.9,2.5,2,3.4,3.2
						c1,1.3,1.5,2.7,1.6,4.2c0.1,1.8,0,3.9-0.4,6.2c-0.4,2.3-0.9,4.8-1.4,7.3c-0.5,2.5-1.1,5.1-1.6,7.8c-0.5,2.6-0.8,5.2-0.9,7.6
						c-0.1,1.1,0,1.8,0.3,1.9c0.3,0.2,0.6,0.1,1-0.3c0.4-0.4,0.8-0.8,1.2-1.4c0.4-0.5,0.7-1,0.8-1.2c1-1.8,2-4.1,3-6.8
						c1-2.7,2.1-5.4,3.1-8l4.7-12.3c0,0.4,0.1,1,0.2,1.7c0.1,0.7,0.2,1.7,0.2,2.8s-0.1,2.4-0.3,3.9c-0.2,1.5-0.7,3.3-1.3,5.3
						l-0.3,0.7l-1.3,3.7c-0.7,2-1.4,4.1-2.1,6.2c-0.7,2.1-1.5,4.1-2.3,5.9c-0.9,2-1.9,3.6-3.1,4.9c-1.1,1.3-2.3,2.1-3.4,2.5
						c-0.8,0.2-1.7,0.2-2.8,0c-1.1-0.2-2.1-0.7-3.1-1.4c-1-0.7-1.9-1.6-2.6-2.7C246.4,189.5,246,188.2,245.8,186.7z"/>
					<linearGradient id="SVGID_4_" gradientUnits="userSpaceOnUse" x1="205.7495" y1="285.6464" x2="332.2791" y2="81.9014">
						<stop  offset="0.2186" style="stop-color:#FFFFFF"/>
						<stop  offset="0.3179" style="stop-color:#FFF7F6"/>
						<stop  offset="0.4789" style="stop-color:#FEE3DE"/>
						<stop  offset="0.6816" style="stop-color:#FDC2B7"/>
						<stop  offset="0.9158" style="stop-color:#FC9481"/>
						<stop  offset="1" style="stop-color:#FB826C"/>
					</linearGradient>
					<path class="st4" d="M286,171.8c-0.4,1.4-0.9,3-1.5,4.9c-0.6,1.9-1.4,3.6-2.3,5.2c-0.8,1.4-1.6,2.8-2.4,4.2
						c-0.8,1.4-1.6,2.6-2.4,3.6c-0.8,1-1.5,1.8-2.2,2.4c-0.7,0.6-1.4,0.8-2,0.6c-2-0.6-3.9-1.3-5.5-2.2c-1.6-0.9-2.7-2.2-3.1-3.9
						c-0.7-2.9-0.8-6.4-0.4-10.8c0.4-4.3,1.2-8.9,2.5-13.9c0.7-2.3,1.5-4.7,2.4-7c1-2.3,2-4.5,3.1-6.5c1.1-2,2.3-3.7,3.5-5.1
						c1.2-1.5,2.4-2.5,3.7-3c0.3-0.1,0.8-0.2,1.6-0.2c0.8,0,1.6,0,2.6,0.3c0.9,0.2,1.8,0.6,2.6,1.1c0.8,0.5,1.3,1.2,1.7,2.1
						c0.1-2.3,0.3-4.8,0.5-7.6c0.2-2.8,0.5-5.6,0.7-8.6c0.3-2.9,0.5-5.8,0.7-8.6c0.2-2.8,0.5-5.3,0.7-7.6c0.2-2.3,0.4-4.1,0.5-5.6
						c0.1-1.5,0.2-2.3,0.2-2.5c0-1.2,0-2.2,0-2.9c0-0.7-0.2-1.4-0.5-2.1c0-0.1,0.6,0.2,1.8,0.9c1.2,0.7,2.5,1.5,4,2.5
						c1.5,1,3,2.1,4.4,3.3c1.4,1.2,2.3,2.2,2.7,3.2c0.4,0.9,0.7,1.9,0.8,3.1c0.2,1.2,0,2.8-0.3,4.8c-0.5,3.4-0.9,6.5-1.3,9.3
						c-0.4,2.8-0.9,6.1-1.5,9.7c-0.6,3.7-1.1,7.4-1.7,11.3c-0.6,3.9-1.1,7.7-1.7,11.5c-0.6,3.8-1.1,7.2-1.5,10.3
						c-0.5,3.1-0.8,5.6-1.1,7.7c-0.3,2.1-0.4,3.4-0.5,3.9c-0.1,1.1,0,1.8,0.2,1.9c0.3,0.1,0.6,0,1-0.3c0.4-0.3,0.8-0.8,1.2-1.3
						c0.4-0.6,0.7-1,0.8-1.3c1-1.8,2-4.1,3-6.8c1-2.7,2.1-5.4,3.1-8l4.7-12.3c0,0.4,0.1,1,0.2,1.7c0.1,0.7,0.2,1.7,0.2,2.8
						s-0.1,2.4-0.3,3.9c-0.2,1.5-0.7,3.3-1.3,5.3l-0.3,0.7l-1.3,3.7c-0.7,2-1.4,4.1-2.1,6.2c-0.7,2.1-1.5,4.1-2.3,5.9
						c-0.9,2-1.9,3.6-3.1,4.9c-1.1,1.3-2.3,2.1-3.4,2.5c-0.8,0.2-1.7,0.2-2.8,0c-1.1-0.3-2.1-0.8-3.1-1.5c-1-0.7-1.8-1.7-2.6-2.8
						c-0.7-1.1-1.1-2.5-1.2-4L286,171.8z M287.4,147c-0.3-0.9-0.7-1.3-1-1.2c-0.3,0.1-0.6,0.2-0.8,0.3c-1.7,1.3-3.2,3.5-4.4,6.7
						c-1.2,3.2-2.4,7-3.7,11.5c0,0.1-0.1,0.5-0.3,1.4c-0.2,0.9-0.4,1.9-0.7,3.2c-0.3,1.3-0.6,2.7-0.9,4.2c-0.3,1.5-0.6,2.9-0.9,4.2
						c-0.3,1.3-0.5,2.4-0.6,3.3c-0.1,0.9-0.1,1.4,0,1.4c0.6,0.3,1.3,0.1,2.2-0.8c0.9-0.8,1.7-1.9,2.7-3.4c0.9-1.4,1.9-3.1,2.8-4.9
						c1-1.8,1.8-3.7,2.5-5.5c0.7-1.8,1.3-3.5,1.8-5c0.5-1.5,0.7-2.7,0.7-3.5L287.4,147z"/>
				</g>
				<g>
					<path class="st5" d="M127.2,236.4L127.2,236.4c2.1-2.8,6-3.4,8.9-1.2c1.8,1.3,2.5,2.6,2.8,4.2l-2.6,0.6
						c-0.3-1.2-0.7-2.1-1.8-2.9c-1.6-1.2-3.8-0.7-5.1,0.9l0,0c-1.3,1.8-1.1,4,0.6,5.3c0.8,0.6,1.6,0.9,2.5,0.9l1-1.4l-2.2-1.6
						l1.4-1.8l4.2,3.2l-3.2,4.2c-1.6,0.1-3.5-0.2-5.3-1.6C125.6,243,125.1,239.3,127.2,236.4z"/>
					<path class="st5" d="M138.4,244.7L138.4,244.7c1.8-3,5.6-4.1,8.8-2.2s4.1,5.7,2.4,8.7l0,0c-1.8,3-5.5,4-8.8,2.1
						C137.5,251.4,136.6,247.7,138.4,244.7z M147.1,249.8L147.1,249.8c1.1-1.8,0.6-4.1-1.2-5.2c-1.9-1.1-4-0.4-5.1,1.4l0,0
						c-1.1,1.8-0.6,4.1,1.2,5.2C143.9,252.3,146,251.6,147.1,249.8z"/>
					<path class="st5" d="M151.3,253l2.8-6.3l2.4,1.1l-2.8,6.3c-0.8,1.8-0.3,3.2,1.2,3.8c1.5,0.7,2.8,0.2,3.6-1.6l2.8-6.4l2.4,1.1
						l-2.8,6.3c-1.5,3.4-4.1,4.2-7.1,2.8C150.9,258.8,149.8,256.3,151.3,253z"/>
					<path class="st5" d="M165.9,251.8l5.3,1.7c1.5,0.5,2.5,1.3,3,2.3c0.4,0.9,0.5,1.9,0.1,3l0,0c-0.6,1.9-2,2.7-3.6,2.8l1.5,5.1
						l-3-1l-1.3-4.5l-2-0.7l-1.2,3.7l-2.5-0.8L165.9,251.8z M169.2,259.1c1.2,0.4,2.2,0,2.5-1l0,0c0.4-1.1-0.2-1.9-1.5-2.3l-2.5-0.8
						l-1.1,3.3L169.2,259.1z"/>
					<path class="st5" d="M177.4,255.4l2.8,0.6l2.1,5.7l4.1-4.4l2.8,0.6l-2.4,11.9l-2.6-0.5l1.6-7.8l-4.4,4.4l-0.1,0l-2.3-5.7
						l-1.5,7.7l-2.6-0.5L177.4,255.4z"/>
					<path class="st5" d="M191.7,258.1l9.1,0.7l-0.2,2.4l-6.5-0.5l-0.2,2.5l5.7,0.5l-0.2,2.4l-5.7-0.5l-0.2,2.5l6.6,0.5l-0.2,2.4
						l-9.2-0.7L191.7,258.1z"/>
					<path class="st5" d="M205.8,261.2l-3.7,0.1l-0.1-2.5l10.1-0.2l0.1,2.5l-3.7,0.1l0.2,9.7l-2.7,0.1L205.8,261.2z"/>
					<path class="st5" d="M218.7,258l4.9-0.8c2.9-0.5,4.9,0.9,5.3,3.4l0,0c0.5,2.8-1.5,4.6-4.2,5l-2,0.3l0.6,3.6l-2.6,0.4L218.7,258
						z M224.4,263.2c1.3-0.2,2-1.1,1.8-2.2l0,0c-0.2-1.2-1.1-1.7-2.4-1.5l-2,0.3l0.6,3.7L224.4,263.2z"/>
					<path class="st5" d="M230.8,262.2L230.8,262.2c-0.9-3.4,0.9-6.8,4.6-7.8c3.6-1,7,1,7.9,4.3l0,0c0.9,3.3-1,6.8-4.6,7.8
						C235.1,267.5,231.7,265.5,230.8,262.2z M240.6,259.5L240.6,259.5c-0.6-2-2.5-3.3-4.6-2.7c-2.1,0.6-3.1,2.6-2.5,4.6l0,0
						c0.6,2,2.5,3.3,4.6,2.7C240.1,263.5,241.1,261.5,240.6,259.5z"/>
					<path class="st5" d="M243.3,252.1l4.6-1.9c2.7-1.1,5-0.2,5.9,2.1l0,0c1.1,2.6-0.4,4.8-2.9,5.8l-1.9,0.8l1.4,3.4l-2.5,1
						L243.3,252.1z M250.1,256c1.2-0.5,1.7-1.5,1.3-2.5l0,0c-0.5-1.1-1.5-1.4-2.7-0.9l-1.9,0.8l1.4,3.4L250.1,256z"/>
					<path class="st5" d="M256.1,253.4L256.1,253.4c-1.7-3.1-0.8-6.8,2.5-8.6c2-1.1,3.6-1.1,5.1-0.7l-0.5,2.5
						c-1.2-0.3-2.3-0.3-3.4,0.3c-1.8,1-2.3,3.2-1.2,5l0,0c1,1.8,3.1,2.6,4.9,1.6c1.2-0.7,1.7-1.6,2.1-2.8l2.3,0.7
						c-0.4,1.8-1.2,3.2-3.3,4.3C261.4,257.6,257.8,256.4,256.1,253.4z"/>
					<path class="st5" d="M267.1,247.1L267.1,247.1c-2.1-2.8-1.6-6.7,1.4-8.9c3-2.2,6.8-1.6,8.9,1.2l0,0c2.1,2.8,1.6,6.7-1.5,8.9
						C273,250.6,269.2,249.9,267.1,247.1z M275.3,241.1L275.3,241.1c-1.3-1.7-3.5-2.2-5.3-0.9c-1.7,1.3-1.9,3.5-0.7,5.2l0,0
						c1.2,1.7,3.5,2.2,5.2,0.9C276.3,245,276.5,242.8,275.3,241.1z"/>
					<path class="st5" d="M275.2,233.3l4-3.9c1.1-1.1,2.3-1.6,3.4-1.6c1,0,1.9,0.5,2.7,1.3l0,0c1.4,1.4,1.5,3,0.7,4.5l5.2,1.1
						l-2.3,2.2l-4.6-1l-1.5,1.5l2.7,2.8l-1.9,1.9L275.2,233.3z M283.1,233.8c0.9-0.9,1-1.9,0.3-2.7l0,0c-0.8-0.8-1.8-0.7-2.7,0.2
						l-1.9,1.8l2.4,2.5L283.1,233.8z"/>
					<path class="st5" d="M283.8,224.8l1.6-1.9l9.4,0.4l-5.8-4.8l1.7-2l9.4,7.8l-1.5,1.8l-9.7-0.4l6,4.9l-1.7,2L283.8,224.8z"/>
				</g>
				<g>
					<path class="st6" d="M204.4,23.7c-52.1,0-97.4,28.8-120.9,71.4c4.7-1.3,9.9-2.6,15-3.4c22.7-34.3,61.7-56.9,105.9-56.9
						c42.3,0,79.8,20.7,102.8,52.5c3.4,4.7,6.5,9.6,9.2,14.8c3.1,5.9,5.8,12,8,18.3h11.7C318.6,64.3,266.2,23.7,204.4,23.7z"/>
				</g>
			</g>
			<g>
				<linearGradient id="SVGID_5_" gradientUnits="userSpaceOnUse" x1="186.638" y1="273.7777" x2="313.1676" y2="70.0327">
					<stop  offset="0.2186" style="stop-color:#FFFFFF"/>
					<stop  offset="0.3179" style="stop-color:#FFF7F6"/>
					<stop  offset="0.4789" style="stop-color:#FEE3DE"/>
					<stop  offset="0.6816" style="stop-color:#FDC2B7"/>
					<stop  offset="0.9158" style="stop-color:#FC9481"/>
					<stop  offset="1" style="stop-color:#FB826C"/>
				</linearGradient>
				<path class="st7" d="M342.3,151.4c0.2-1.9,0.3-3.5,0.2-4.8c-0.1-1.2-0.3-2.3-0.8-3.1c-0.3-0.6-0.8-1.3-1.5-2
					c-0.7-0.7-1.5-1.4-2.4-2c-0.9-0.7-1.8-1.3-2.8-1.9c-1-0.6-1.8-1.1-2.6-1.6c-0.8-0.4-1.4-0.8-1.9-1.1c-0.5-0.3-0.7-0.4-0.7-0.3
					c0.4,0.7,0.6,1.5,0.7,2.4c0.1,0.9,0.2,2,0.3,3.3c0.1,0.9,0.1,1.7,0.1,2.4c0,0.7,0,1.4,0,2c0,0.7,0,1.3,0,1.9
					c0,0.6,0,1.4-0.1,2.2l-4.3,11.6c-1.1,2.7-2.2,5.3-3.2,8c-1,2.7-2,5-3,6.8c-0.1,0.3-0.4,0.7-0.8,1.2c-0.4,0.5-0.8,1-1.2,1.3
					c-0.4,0.3-0.7,0.4-1,0.3c-0.3-0.1-0.4-0.7-0.3-1.9c0.1-1,0.3-2.7,0.7-5.1c0.4-2.4,0.8-4.8,1.2-7.3c0.4-2.5,0.9-5.6,1.5-9.4
					c0.4-1.9,0.5-3.5,0.4-4.7c-0.1-1.3-0.4-2.3-0.9-3.2c-0.4-0.9-1.2-1.9-2.6-3c-1.3-1.1-2.7-2-4-2.9c-1.4-0.9-2.6-1.6-3.6-2.2
					c-1-0.6-1.6-0.8-1.6-0.8c0.3,0.7,0.5,1.5,0.5,2.1c0,0.7,0,1.7,0,3c0,0.5,0,1.4,0,2.7c0,1.4-0.1,3-0.1,5c0,2-0.1,4.1-0.1,6.5
					c0,2.3-0.1,4.7-0.1,7.1c-0.1,2.4-0.1,4.8-0.1,7.1c0,2.3,0,4.3,0,6.1c0.1,1.5,0.4,2.8,1.1,4c0.7,1.1,1.5,2.1,2.5,2.8
					c1,0.7,2,1.3,3,1.5c1,0.3,1.9,0.3,2.7,0.1c1.2-0.4,2.3-1.2,3.4-2.5c1.1-1.3,2.1-2.9,3.1-4.9c0.9-1.8,1.7-3.8,2.4-5.9
					c0.7-2.1,1.4-4.2,2.1-6.2l1.2-3.7l-0.2,1.8c-0.5,5.3-1.2,10.2-2,14.9c-0.8,4.6-1.6,9-2.6,13.1c0,0-0.8,3.4-2,7.2
					c0.1-0.1,0.1-0.1,0.2-0.2c-0.9,3.2-1.7,4.9-2.6,7.5c-1,3.6-8,16-8.6,17.1c-2.2,4.1-8.6,12.6-8.6,12.6
					c-22.7,31.4-59.3,51.4-101,51.4c-36.8,0-69.8-15.9-92.7-41.2c-3.3,0.7-7.9,1.2-13.6,0.8c24.9,31.3,63.2,51.3,106.3,51.3
					c46.4,0,87.4-23.3,111.9-58.9l0,0c0,0,9.8-13.4,13.3-23.4C340.3,186.4,341.8,155.6,342.3,151.4z"/>
			</g>
			<g id="zZiq1R_1_">
				<g>
					<linearGradient id="SVGID_6_" gradientUnits="userSpaceOnUse" x1="147.2841" y1="249.3382" x2="273.8137" y2="45.5932">
						<stop  offset="0.2186" style="stop-color:#FFFFFF"/>
						<stop  offset="0.3179" style="stop-color:#FFF7F6"/>
						<stop  offset="0.4789" style="stop-color:#FEE3DE"/>
						<stop  offset="0.6816" style="stop-color:#FDC2B7"/>
						<stop  offset="0.9158" style="stop-color:#FC9481"/>
						<stop  offset="1" style="stop-color:#FB826C"/>
					</linearGradient>
					<path class="st8" d="M215.4,142.2l-2.2-22.5c-1.2-0.4-2.5-0.8-3.7-1.3c-8.9-3.4-13.7-12.8-11.3-22c2.5-9.2,11.3-15.1,20.7-13.6
						c2.1,0.3,3.4,0,4.9-1.6c7.3-7.6,18.6-7.2,25.6,0.7c1.4,1.6,2.6,1.9,4.6,1.8c8.2-0.6,15.8,4.7,17.9,12.3
						c2.4,8.5-1.2,16.9-9.1,20.7c-2.5,1.2-3,2.5-2.7,5c0.7,5.2,1.1,10.5,1.6,16L215.4,142.2z M254.2,121.6l-0.8-8.5
						c9.8-2,14.5-6.8,12.8-13.8c-0.6-2.7-2.5-5.5-4.7-7.4c-4.1-3.5-8.9-2.5-13.7-0.2c-1.9-5.6-5.1-9.4-10.9-9.8
						c-6.5-0.4-10.1,3.6-12.3,9.1c-10.2-3.6-15.9-2.5-19.5,3.8c-3,5.3-1.7,12.2,3.1,16c5.9,4.6,12,3.4,19.8-3.8
						c8.1,4.8,19,2.5,20,1.9c0.3,1.2-6.3,7.1-18,4.2c-1.1-0.3-3.5,4.5-10.8,5.6l0.6,5.4c0,0,9.5-1.5,17-2.2
						C244.6,121.2,254.2,121.6,254.2,121.6z M254.2,127.1c0,0-9-0.9-19.1-0.4c-9.4,0.5-14.9,1.5-14.9,1.5l0.8,8.4l34-3.4
						L254.2,127.1z"/>
				</g>
			</g>
		</g>
	</g>
	<g>
		<g>
			<path class="st0" d="M95.4,332.2c0.8,0,1.6,0.5,2.4,1.4c0.8,1,1.2,1.8,1.2,2.6c0,0.5-0.2,0.8-0.7,0.8c-0.3,0-0.7-0.1-1.2-0.4
				c-0.5-0.3-1-0.4-1.5-0.4s-1.3,0.5-2.2,1.4c-1,0.9-1.8,2-2.5,3.2c-0.7,1.3-1.1,2.3-1.1,3.2c0,1.1,0.7,1.7,2,1.7
				c1.3,0,2.4-0.1,3.2-0.3c0.8-0.2,1.4-0.4,1.9-0.6c0.4-0.2,0.8-0.3,1.1-0.3c0.6,0,0.8,0.3,0.8,0.8c0,0.9-0.8,1.8-2.5,2.8
				c-1.7,1-3.3,1.5-4.9,1.5c-1.2,0-2.4-0.6-3.8-1.8c-1.3-1.2-2-2.3-2-3.5c0-1.6,0.5-3.3,1.5-5.2c1-1.9,2.3-3.5,3.8-4.8
				C92.3,332.9,93.9,332.2,95.4,332.2z"/>
			<path class="st0" d="M109.4,332.7c0.8-0.3,1.7-0.5,2.5-0.5c0.8,0,1.4,0.2,1.6,0.5c0.2,0.3,0.2,0.7,0,1.2
				c-0.2,0.5-0.7,0.8-1.2,1.2c0,0-0.3,0.2-0.8,0.4c-0.5,0.3-0.8,0.5-1,0.6c-0.2,0.1-0.5,0.3-0.9,0.7c-0.4,0.4-0.8,0.8-1,1.2
				c-0.7,1.1-1.2,2.4-1.7,3.9c-0.8,3-1.5,5.1-1.9,6.1c-0.4,1-1,1.6-1.7,1.6c-0.7,0-1.2-0.4-1.6-1.4c-0.4-0.9-0.4-1.8,0-2.8
				c0.6-1.8,1.1-3.4,1.4-4.7c0.3-1.3,0.4-2.6,0.3-4c-0.2-1-0.2-2-0.2-2.9c0.1-0.9,0.4-1.4,1-1.4c0.5,0,1,0.2,1.4,0.7
				c0.4,0.5,0.7,1.1,0.9,2C107.6,333.8,108.5,333.1,109.4,332.7z"/>
			<path class="st0" d="M116.9,332.2c0.7,0,1.3,0.4,1.8,1.2c0.6,0.8,0.8,1.5,0.8,2.3c0,1.1-1.2,5.2-3.5,12.3
				c-0.2,0.5-0.4,0.9-0.7,1.1c-0.3,0.2-0.6,0.3-1,0.3c-0.4,0-0.8-0.2-1-0.6c-0.3-0.4-0.4-0.7-0.4-1c0-0.3,0-0.7,0.1-1
				s0.1-0.8,0.3-1.4c0.1-0.5,0.2-1,0.3-1.5c0.1-0.6,0.3-1.5,0.6-2.7s0.5-2.3,0.7-3.2c0.2-0.9,0.3-1.7,0.5-2.3
				c0.1-0.6,0.3-1.2,0.4-1.8C116.1,332.8,116.5,332.2,116.9,332.2z M121.4,329.7c0,0.3-0.2,0.6-0.5,0.9c-0.3,0.3-0.6,0.4-1,0.4
				c-0.6,0-1.3-0.4-2.1-1.2c-0.8-0.8-1.2-1.5-1.2-2c0-0.6,0.2-1.1,0.7-1.7c0.5-0.6,0.9-0.8,1.4-0.8c0.5,0,1,0.6,1.7,1.7
				C121,328.1,121.4,329,121.4,329.7z"/>
			<path class="st0" d="M135.2,336.2c0,0.5-0.2,0.7-0.7,0.7c-0.3,0-0.7-0.1-1.2-0.4c-0.5-0.3-1-0.4-1.6-0.4c-0.5,0-1.3,0.2-2.4,0.7
				c-1.1,0.5-1.6,1-1.6,1.6c0,0.3,0.3,0.6,0.9,1.1c0.6,0.4,1.3,0.9,2,1.4s1.4,1.1,2,1.9c0.6,0.8,0.9,1.6,0.9,2.6
				c0,0.9-0.7,1.8-2,2.8c-1.3,0.9-2.9,1.4-4.7,1.4c-1.8,0-3.3-0.4-4.6-1.2c-1.3-0.8-1.9-1.6-1.9-2.5c0-0.8,0.3-1.2,1-1.2
				c0.3,0,0.6,0.1,1,0.4c1.2,0.7,2.5,1.1,4.2,1.1c0.8,0,1.4-0.1,2-0.3c0.6-0.2,0.8-0.4,0.8-0.8c0-0.4-0.3-0.9-1-1.4
				c-0.6-0.6-1.3-1.1-2.1-1.6c-0.8-0.5-1.5-1-2.1-1.7c-0.6-0.7-1-1.4-1-2.1s0.5-1.6,1.6-2.6c1.1-1,2.2-1.8,3.5-2.4
				c1.3-0.6,2.3-0.9,3.1-0.9s1.6,0.5,2.4,1.4C134.8,334.6,135.2,335.5,135.2,336.2z"/>
			<path class="st0" d="M148.8,332.2c0.9,0,1.7,0.7,2.6,2.1c0.9,1.4,1.3,2.8,1.3,4.2c0,1.4-0.6,3-1.9,4.6s-2.8,3.1-4.8,4.4
				c-1.9,1.2-3.8,1.8-5.5,1.8c-0.3,0-0.5,0-0.6,0c-1,4.3-1.7,7-2.3,8.1c-0.2,0.5-0.5,0.7-0.7,0.7c-0.4,0-0.9-0.3-1.4-1
				c-0.5-0.7-0.7-1.3-0.7-1.8c0-0.5,0.3-2.1,1-4.9c2-8.1,3-14,3-17.8c0-0.7,0.3-1,0.9-1c0.5,0,1.2,0.3,2,1c0.8,0.6,1.2,1.4,1.3,2.4
				C145.1,333.2,147,332.2,148.8,332.2z M146.2,342.9c1.7-1.7,2.6-3.2,2.6-4.6c0-1.4-0.4-2.1-1.1-2.1c-0.6,0-1.5,0.4-2.6,1.3
				c-0.6,0.5-1.3,1.2-1.9,2.3c-0.7,1-1.2,2.3-1.7,3.7l-0.6,2.3C142.7,345.6,144.4,344.6,146.2,342.9z"/>
			<path class="st0" d="M175,332.2c1.1,0,2.2,0.5,3.4,1.6c1.2,1.1,1.7,2,1.7,2.9c0,0.9-0.3,1.9-0.9,3c0.4,0.4,0.5,0.7,0.5,1
				c0,0.3-0.1,0.9-0.4,1.9c-0.3,1-0.5,1.7-0.6,2.3c-0.1,0.6-0.2,1.1-0.3,1.6c-0.1,0.5-0.1,0.9-0.2,1.2c-0.1,0.2-0.1,0.5-0.2,0.9
				c-0.2,0.6-0.4,0.8-0.8,0.8s-0.8-0.3-1.2-1c-0.4-0.7-0.7-1.5-0.9-2.4c-2.1,2.3-4,3.4-5.5,3.4c-1,0-2-0.5-3.1-1.5s-1.6-2-1.6-2.9
				c0-0.9,0.3-2.1,0.9-3.5c0.6-1.4,1.4-2.8,2.3-4.2c0.9-1.4,2.1-2.6,3.4-3.6C172.8,332.7,174,332.2,175,332.2z M168.6,344.9
				c0,0.5,0.3,0.7,0.8,0.7c0.6,0,1.3-0.2,2.1-0.7c0.9-0.5,1.8-1.3,2.7-2.4c0.9-1.1,1.5-2.3,1.8-3.7c0.1-0.3,0.3-0.5,0.6-0.5
				c-0.1-1.5-0.4-2.3-0.9-2.3c-1.4,0-2.9,1.2-4.6,3.5S168.6,343.7,168.6,344.9z"/>
			<path class="st0" d="M184.7,349.4c-0.4,0-1-0.3-1.6-1c-0.6-0.7-0.9-1.3-0.9-1.7s0.3-1.9,0.9-4.2c0.6-2.4,1.2-5.3,1.9-8.7
				s0.9-6.8,0.9-9.9c0-0.7,0.3-1,0.9-1c0.5,0,1.1,0.4,1.9,1.3c0.8,0.9,1.2,1.7,1.2,2.5c0,1.2-0.2,3.1-0.5,5.6
				c-0.3,2.5-0.7,4.7-1.2,6.5C186.5,345.9,185.3,349.4,184.7,349.4z"/>
			<path class="st0" d="M192.6,349.4c-0.4,0-1-0.3-1.6-1c-0.6-0.7-0.9-1.3-0.9-1.7s0.3-1.9,0.9-4.2c0.6-2.4,1.2-5.3,1.9-8.7
				c0.6-3.5,0.9-6.8,0.9-9.9c0-0.7,0.3-1,0.9-1c0.5,0,1.1,0.4,1.9,1.3c0.8,0.9,1.2,1.7,1.2,2.5c0,1.2-0.2,3.1-0.5,5.6
				c-0.3,2.5-0.7,4.7-1.2,6.5C194.4,345.9,193.3,349.4,192.6,349.4z"/>
			<path class="st0" d="M212.6,345.5c0,0.2,0.2,0.3,0.7,0.3c0.5,0,1.4-0.2,2.7-0.7c1.3-0.5,2.1-0.7,2.4-0.7c0.5,0,0.8,0.3,0.8,0.9
				c0,0.8-0.7,1.7-2.2,2.7c-1.5,1-3,1.5-4.5,1.5c-0.8,0-1.6-0.4-2.5-1.1c-0.9-0.7-1.4-1.5-1.4-2.3c0-0.7,0.4-2.2,1.1-4.4
				c0.7-2.2,1.2-3.8,1.5-4.8c-0.9,0.2-1.6,0.4-2.1,0.4c-0.4,0-0.9-0.3-1.3-0.8c-0.5-0.6-0.7-1.1-0.7-1.6c0-0.7,1.7-1.3,5-1.7
				c0.4-2,0.6-3.7,0.6-5.3c0-0.7,0.3-1,0.9-1c0.5,0,1.2,0.3,2,1c0.8,0.6,1.2,1.3,1.2,1.8c0,0.6-0.2,1.6-0.5,3.1
				c1.2,0,2.1-0.1,2.6-0.1c1.6,0,2.4,0.3,2.4,1c0,0.5-0.5,0.9-1.4,1.2c-0.9,0.3-2.4,0.7-4.5,1.1c-0.6,1.9-1.2,3.9-1.9,6
				S212.6,345.2,212.6,345.5z"/>
			<path class="st0" d="M225.3,322.7c0.6,0,1.2,0.5,1.9,1.4c0.7,0.9,1,1.7,1,2.5c0,2.1-1.3,7.5-4,16.1c1.7-3.3,3.3-5.9,4.9-7.7
				c1.6-1.9,3-2.8,4.1-2.8c0.7,0,1.4,0.6,2.3,1.8c0.9,1.2,1.3,2.3,1.3,3.3c0,1-0.2,2.5-0.6,4.4c-0.4,1.9-1,3.7-1.9,5.4
				c-0.8,1.6-1.7,2.5-2.6,2.5c-0.7,0-1-0.5-1-1.4c0-0.9,0.2-2.2,0.7-3.8c0.5-1.6,0.8-2.7,0.9-3.4c0.2-0.6,0.2-1.3,0.2-1.9
				c0-0.7-0.1-1-0.4-1c-0.8,0-1.6,0.6-2.6,1.8c-1,1.2-1.9,2.6-2.8,4.1c-0.9,1.5-1.4,2.4-1.7,2.8c-0.2,0.4-0.6,0.9-0.9,1.4
				c-0.7,0.9-1.3,1.4-1.7,1.4c-0.5,0-1-0.4-1.7-1.1c-0.6-0.7-1-1.3-1-1.7c0-0.4,0.1-1.1,0.3-2.1c0.2-1,0.5-2.3,0.9-4
				c0.4-1.7,1-4.6,1.9-8.8c0.9-4.2,1.3-6.7,1.3-7.6C224.3,323.2,224.6,322.7,225.3,322.7z"/>
			<path class="st0" d="M251,341.3c-1.4,0.8-3,1.3-4.5,1.3c-1.6,0-2.9-0.1-4.1-0.4c-0.2,0.8-0.3,1.5-0.3,2.1c0,0.6,0.1,1.1,0.4,1.4
				c0.3,0.3,0.9,0.5,1.7,0.5c1.6,0,3-0.2,4.2-0.5c1.2-0.3,1.8-0.5,1.9-0.5c0.8,0,1.3,0.3,1.3,0.8c0,0.8-0.7,1.6-2.1,2.4
				c-1.4,0.8-3,1.1-4.8,1.1c-1.8,0-3.3-0.6-4.4-1.7c-1.1-1.2-1.7-2.5-1.7-4.2c0-1.6,0.5-3.3,1.4-5.1c0.9-1.8,2.1-3.3,3.5-4.5
				c1.4-1.2,2.8-1.8,4.2-1.8s2.7,0.7,3.9,2.1c1.2,1.4,1.8,2.7,1.8,4.1C253.2,339.4,252.4,340.4,251,341.3z M248.9,336.6
				c-0.5-0.5-1-0.7-1.5-0.7c-0.5,0-1.1,0.3-1.9,1c-0.7,0.7-1.4,1.6-2,2.6c0.5,0.1,1,0.1,1.5,0.1c3.1,0,4.6-0.6,4.6-1.8
				C249.6,337.5,249.4,337.1,248.9,336.6z"/>
			<path class="st0" d="M279.3,332.2c2.3,0,4.1,0.8,5.3,2.5c1.2,1.6,1.9,3.6,1.9,6c0,1.3-0.3,2.6-0.8,3.9c-0.5,1.3-1.4,2.5-2.6,3.5
				c-1.2,1-2.5,1.5-4,1.5c-1.5,0-2.7-0.7-3.6-2s-1.5-2.9-1.9-4.7c-0.6,0.7-1.3,1.6-2.3,2.9c-1,1.3-1.8,2.2-2.4,2.8
				c-0.6,0.6-1.2,0.9-1.6,0.9s-1-0.3-1.6-0.9c-0.6-0.6-0.9-1.2-0.9-1.9c0-1.6,0.3-3.9,0.8-6.8c0.5-2.9,0.8-5,0.8-6.4
				c0-0.9,0.3-1.3,0.8-1.3c0.7,0,1.5,0.4,2.4,1.2c0.9,0.8,1.4,1.5,1.4,2.1c0,0.3-0.3,1.3-0.8,2.8c-0.6,1.5-0.9,2.9-1,4.2
				c1-1.4,2.1-2.6,3.3-3.4s2.1-1.3,2.9-1.3c0.8,0,1.4,1.3,1.7,3.8c0.1,0.9,0.4,1.8,0.8,2.6c0.4,0.8,0.9,1.2,1.5,1.2
				c0.9,0,1.6-0.5,2.3-1.4c0.7-0.9,1-2.1,1-3.6s-0.2-2.5-0.6-3.3c-0.4-0.7-1-1.1-1.8-1.1c-0.8,0-1.5-0.3-2.1-0.9
				c-0.6-0.6-0.9-1.2-0.9-1.6C277.3,332.6,278,332.2,279.3,332.2z"/>
			<path class="st0" d="M297.9,332.2c1.1,0,2.2,0.5,3.4,1.6c1.2,1.1,1.7,2,1.7,2.9c0,0.9-0.3,1.9-0.9,3c0.4,0.4,0.5,0.7,0.5,1
				c0,0.3-0.1,0.9-0.4,1.9c-0.3,1-0.5,1.7-0.6,2.3c-0.1,0.6-0.2,1.1-0.3,1.6c-0.1,0.5-0.1,0.9-0.2,1.2c-0.1,0.2-0.1,0.5-0.2,0.9
				c-0.2,0.6-0.4,0.8-0.8,0.8s-0.8-0.3-1.2-1c-0.4-0.7-0.7-1.5-0.9-2.4c-2.1,2.3-4,3.4-5.5,3.4c-1,0-2-0.5-3.1-1.5s-1.6-2-1.6-2.9
				c0-0.9,0.3-2.1,0.9-3.5c0.6-1.4,1.4-2.8,2.3-4.2c0.9-1.4,2.1-2.6,3.4-3.6C295.6,332.7,296.8,332.2,297.9,332.2z M291.4,344.9
				c0,0.5,0.3,0.7,0.8,0.7c0.6,0,1.3-0.2,2.1-0.7c0.9-0.5,1.8-1.3,2.7-2.4c0.9-1.1,1.5-2.3,1.8-3.7c0.1-0.3,0.3-0.5,0.6-0.5
				c-0.1-1.5-0.4-2.3-0.9-2.3c-1.4,0-2.9,1.2-4.6,3.5S291.4,343.7,291.4,344.9z"/>
			<path class="st0" d="M309.4,349.4c-0.8,0-1.7-0.5-2.6-1.5c-0.9-1-1.4-2-1.4-3.1c0-2.1,0.6-4.7,1.8-7.9c1.2-3.2,2.2-4.8,3.1-4.8
				c0.6,0,1.2,0.3,1.7,0.8s0.8,1,0.8,1.6c0,0.5-0.3,1.4-0.8,2.6c-1.7,3.6-2.6,6.3-2.6,8c0,0.3,0.1,0.5,0.3,0.5
				c0.5,0,1.3-0.5,2.3-1.7c1-1.2,2.1-2.8,3.2-4.8c1.1-2,2-4,2.6-6c0.2-0.6,0.5-0.9,0.9-0.9c0.7,0,1.4,0.5,2,1.5c0.6,1,0.8,2,0.4,3
				l-5.8,16.9c-0.5,1.5-1.3,2.7-2.3,3.6c-1,0.9-2.2,1.3-3.6,1.3s-2.7-0.4-3.9-1.3c-1.2-0.8-1.8-1.7-1.8-2.5c0-0.5,0.2-1,0.6-1.5
				c0.4-0.6,0.8-0.8,1.1-0.8s1,0.5,2,1.6c1,1,1.8,1.6,2.4,1.6c0.6,0,1.1-0.5,1.4-1.5l2.6-7.8C312.2,348.3,310.7,349.4,309.4,349.4z"
				/>
		</g>
	</g>
</g>
<title>logo</title>
</svg>
